<?xml version="1.0" standalone="no"?>
<!DOCTYPE svg PUBLIC "-//W3C//DTD SVG 20010904//EN"
 "http://www.w3.org/TR/2001/REC-SVG-20010904/DTD/svg10.dtd">
<svg version="1.0" xmlns="http://www.w3.org/2000/svg"
 width="3000.000000pt" height="1000.000000pt" viewBox="0 0 3000.000000 1000.000000"
 preserveAspectRatio="xMidYMid meet">

<g transform="translate(0.000000,1000.000000) scale(0.100000,-0.100000)"
fill="#000000" stroke="none">
<path d="M3978 9229 c-148 -20 -421 -135 -604 -254 -46 -30 -84 -52 -84 -48 0
4 -7 -2 -15 -13 -8 -10 -15 -15 -15 -11 0 5 -13 0 -29 -9 -17 -10 -27 -22 -24
-27 3 -6 1 -7 -5 -3 -7 4 -183 -96 -400 -227 -523 -316 -801 -476 -1434 -828
-295 -164 -589 -331 -654 -370 -370 -229 -520 -406 -578 -689 -35 -175 -39
-283 -30 -1010 5 -388 7 -959 4 -1270 -9 -1008 -6 -1456 9 -1555 43 -283 158
-482 355 -614 164 -110 506 -298 676 -371 58 -25 90 -47 140 -98 57 -57 96
-83 310 -200 339 -186 680 -384 1264 -735 829 -498 986 -567 1260 -554 251 11
403 83 1194 558 568 342 855 509 1287 749 533 295 755 420 840 473 373 232
511 388 579 658 44 174 49 282 40 944 -10 690 -11 1251 -4 2185 5 591 3 654
-13 755 -38 225 -98 360 -221 492 -139 150 -328 271 -976 628 -557 307 -881
493 -1460 840 -627 376 -655 392 -815 470 -247 119 -420 158 -597 134z m-398
-2255 c101 -23 238 -94 600 -311 408 -244 462 -274 865 -498 176 -97 358 -202
404 -232 166 -110 247 -208 288 -349 15 -54 17 -140 19 -969 0 -500 4 -923 8
-940 10 -47 -11 -344 -30 -405 -41 -137 -112 -224 -264 -325 -52 -35 -230
-139 -395 -230 -402 -224 -454 -254 -865 -500 -509 -304 -583 -338 -740 -337
-146 0 -256 50 -700 317 -332 200 -509 301 -885 510 -361 201 -465 266 -545
345 -72 70 -105 126 -131 226 -22 78 -22 88 -22 1154 0 1065 0 1076 21 1153
52 188 144 273 532 491 91 51 264 149 385 216 121 68 378 218 570 333 597 359
692 397 885 351z"/>
<path d="M3335 6606 c-99 -32 -202 -86 -452 -237 -294 -177 -483 -286 -833
-481 -493 -274 -549 -320 -603 -493 -21 -68 -22 -84 -22 -510 0 -490 -1 -483
72 -630 86 -173 234 -309 413 -382 122 -49 165 -53 608 -53 l413 0 -54 63
c-65 77 -107 149 -141 244 -30 85 -50 229 -41 296 l7 47 -222 0 -222 0 6 78
c19 218 81 385 206 550 117 156 280 272 475 339 152 52 172 53 1378 53 614 0
1117 3 1117 8 0 16 -64 84 -118 126 -79 60 -142 98 -504 299 -174 97 -476 272
-670 388 -194 116 -389 228 -433 249 -153 73 -258 86 -380 46z"/>
<path d="M3960 4923 c0 -5 14 -22 31 -39 43 -40 106 -135 139 -208 43 -96 62
-187 62 -302 l0 -104 219 0 219 0 -6 -62 c-24 -280 -109 -472 -289 -654 -127
-128 -274 -215 -450 -265 l-80 -23 -1184 -6 -1185 -5 35 -40 c79 -91 185 -164
479 -325 295 -163 516 -290 824 -475 443 -265 508 -295 651 -295 137 0 198 28
672 311 184 110 492 287 685 395 193 108 382 216 420 241 144 95 205 169 245
298 16 54 18 101 18 500 l-1 440 -28 80 c-73 211 -208 366 -401 460 -157 77
-165 78 -647 82 -243 3 -428 1 -428 -4z"/>
<path d="M3335 4816 c-296 -73 -437 -414 -282 -678 38 -65 128 -145 204 -181
65 -30 74 -32 189 -32 118 0 121 0 195 37 160 79 259 237 259 413 -1 293 -281
511 -565 441z"/>
<path d="M19340 5839 c-372 -46 -627 -237 -700 -525 -25 -96 -27 -273 -5 -357
49 -188 188 -308 465 -400 58 -20 215 -63 350 -97 490 -124 628 -194 703 -358
18 -39 22 -65 22 -157 0 -104 -2 -114 -32 -176 -81 -164 -259 -246 -558 -256
-233 -8 -427 33 -631 132 -101 49 -250 148 -283 188 -7 9 -17 17 -21 17 -9 0
-120 -181 -120 -195 1 -15 118 -103 215 -162 160 -96 383 -169 598 -194 63 -7
163 -10 262 -6 318 12 537 93 683 253 108 117 152 241 152 429 0 183 -40 294
-144 400 -124 125 -283 194 -681 292 -434 107 -561 153 -643 232 -54 52 -79
104 -94 190 -30 173 47 351 192 443 112 71 351 111 542 90 206 -22 410 -103
525 -207 l62 -56 15 23 c8 13 35 57 60 98 l46 75 -37 33 c-126 111 -304 194
-508 237 -96 20 -331 28 -435 14z"/>
<path d="M21293 5057 c-178 -424 -415 -991 -527 -1260 l-204 -488 135 3 135 3
160 393 161 392 566 -2 566 -3 162 -390 162 -390 131 -3 c123 -2 132 -1 126
15 -4 10 -239 577 -523 1261 l-516 1242 -106 0 -106 0 -322 -773z m675 -127
c134 -329 246 -608 249 -619 5 -21 5 -21 -502 -21 -420 0 -506 2 -503 13 6 28
503 1227 508 1227 3 0 114 -270 248 -600z"/>
<path d="M22764 5813 c4 -10 239 -577 523 -1261 l516 -1243 115 3 115 3 514
1240 c282 682 516 1248 519 1258 5 16 -5 17 -123 17 l-129 0 -443 -1092 c-244
-601 -446 -1097 -450 -1101 -5 -4 -210 487 -456 1093 l-449 1100 -129 0 c-119
0 -129 -1 -123 -17z"/>
<path d="M25174 5813 c4 -10 239 -577 523 -1261 l516 -1243 115 3 115 3 514
1240 c282 682 516 1248 519 1258 5 16 -5 17 -123 17 l-129 0 -443 -1092 c-244
-601 -446 -1097 -450 -1101 -5 -4 -210 487 -456 1093 l-449 1100 -129 0 c-119
0 -129 -1 -123 -17z"/>
<path d="M27593 5823 c2 -4 221 -360 485 -789 l482 -781 0 -472 0 -471 125 0
125 0 0 470 0 470 485 786 c267 433 485 788 485 790 0 2 -60 4 -133 4 l-134 0
-414 -676 c-400 -653 -414 -675 -429 -653 -8 12 -193 315 -410 673 l-396 651
-138 3 c-76 1 -136 -1 -133 -5z"/>
<path d="M8930 4555 l0 -1246 593 4 c557 3 597 5 685 25 135 30 215 58 322
113 309 158 510 434 592 812 31 146 32 438 0 579 -86 392 -288 666 -607 825
-94 47 -180 77 -307 105 -87 20 -129 22 -685 25 l-593 4 0 -1246z m1200 776
c293 -75 480 -285 541 -608 16 -84 6 -339 -16 -418 -63 -228 -225 -413 -431
-491 -119 -44 -212 -54 -530 -54 l-294 0 0 801 0 801 323 -5 c288 -4 331 -7
407 -26z"/>
<path d="M12311 5773 c-18 -39 -1092 -2435 -1098 -2450 -4 -10 50 -13 249 -13
l255 0 104 233 105 232 651 3 650 2 104 -235 104 -235 257 0 256 0 -142 318
c-78 174 -329 734 -557 1244 l-414 928 -256 0 -256 0 -12 -27z m502 -1035
l225 -518 -460 0 c-253 0 -458 4 -456 8 51 130 455 1039 459 1034 4 -4 108
-240 232 -524z"/>
<path d="M13602 5588 l3 -213 393 -3 392 -2 0 -1030 0 -1030 235 0 235 0 0
1030 0 1030 393 2 392 3 3 213 2 212 -1025 0 -1025 0 2 -212z"/>
<path d="M16781 5773 c-18 -39 -1092 -2435 -1098 -2450 -4 -10 50 -13 249 -13
l255 0 104 233 105 232 651 3 650 2 104 -235 104 -235 257 0 256 0 -142 318
c-78 174 -329 734 -557 1244 l-414 928 -256 0 -256 0 -12 -27z m502 -1035
l225 -518 -460 0 c-253 0 -458 4 -456 8 51 130 455 1039 459 1034 4 -4 108
-240 232 -524z"/>
</g>
</svg>
